<?xml version="1.0" encoding="UTF-8"?>
<svg xmlns="http://www.w3.org/2000/svg" xmlns:xlink="http://www.w3.org/1999/xlink" width="375pt" height="374.999991pt" viewBox="0 0 375 374.999991" version="1.2">
<defs>
<clipPath id="clip1">
  <path d="M 135 126 L 160 126 L 160 158 L 135 158 Z M 135 126 "/>
</clipPath>
<clipPath id="clip2">
  <path d="M 146.40625 122.597656 L 170.582031 140.640625 L 153.703125 163.257812 L 129.527344 145.214844 Z M 146.40625 122.597656 "/>
</clipPath>
<clipPath id="clip3">
  <path d="M 146.40625 122.597656 L 170.582031 140.640625 L 153.703125 163.257812 L 129.527344 145.214844 Z M 146.40625 122.597656 "/>
</clipPath>
<clipPath id="clip4">
  <path d="M 146.40625 122.597656 L 170.40625 140.511719 L 153.464844 163.214844 L 129.460938 145.300781 Z M 146.40625 122.597656 "/>
</clipPath>
<clipPath id="clip5">
  <path d="M 150 91.644531 L 155 91.644531 L 155 108 L 150 108 Z M 150 91.644531 "/>
</clipPath>
<clipPath id="clip6">
  <path d="M 103.699219 130 L 121 130 L 121 137 L 103.699219 137 Z M 103.699219 130 "/>
</clipPath>
<clipPath id="clip7">
  <path d="M 133 171 L 143 171 L 143 187.5 L 133 187.5 Z M 133 171 "/>
</clipPath>
<clipPath id="clip8">
  <path d="M 161 171 L 171 171 L 171 187.5 L 161 187.5 Z M 161 171 "/>
</clipPath>
<clipPath id="clip9">
  <path d="M 184 130 L 201.011719 130 L 201.011719 137 L 184 137 Z M 184 130 "/>
</clipPath>
</defs>
<g id="surface1">
<rect x="0" y="0" width="375" height="374.999991" style="fill:rgb(100%,100%,100%);fill-opacity:1;stroke:none;"/>
<rect x="0" y="0" width="375" height="374.999991" style="fill:rgb(100%,100%,100%);fill-opacity:1;stroke:none;"/>
<rect x="0" y="0" width="375" height="374.999991" style="fill:rgb(100%,100%,100%);fill-opacity:1;stroke:none;"/>
<g clip-path="url(#clip1)" clip-rule="nonzero">
<g clip-path="url(#clip2)" clip-rule="nonzero">
<g clip-path="url(#clip3)" clip-rule="nonzero">
<g clip-path="url(#clip4)" clip-rule="nonzero">
<path style=" stroke:none;fill-rule:nonzero;fill:rgb(0%,0%,0%);fill-opacity:1;" d="M 147.601562 129.746094 C 148.636719 128.355469 149.832031 127.183594 151.171875 126.253906 C 146.535156 126.367188 141.945312 128.578125 138.902344 132.652344 C 133.722656 139.59375 135.03125 149.359375 141.820312 154.425781 C 147.25 158.480469 154.589844 158.316406 159.953125 154.519531 C 156.667969 154.605469 153.351562 153.632812 150.546875 151.539062 C 143.726562 146.449219 142.417969 136.6875 147.601562 129.746094 Z M 147.601562 129.746094 "/>
</g>
</g>
</g>
</g>
<path style=" stroke:none;fill-rule:nonzero;fill:rgb(0%,0%,0%);fill-opacity:1;" d="M 152.351562 118.335938 C 140.003906 118.335938 129.953125 128.382812 129.953125 140.734375 C 129.953125 153.085938 140.003906 163.132812 152.351562 163.132812 C 164.703125 163.132812 174.753906 153.085938 174.753906 140.734375 C 174.753906 128.382812 164.703125 118.335938 152.351562 118.335938 Z M 152.351562 166.835938 C 137.960938 166.835938 126.25 155.125 126.25 140.734375 C 126.25 126.339844 137.960938 114.628906 152.351562 114.628906 C 166.746094 114.628906 178.457031 126.339844 178.457031 140.734375 C 178.457031 155.125 166.746094 166.835938 152.351562 166.835938 "/>
<g clip-path="url(#clip5)" clip-rule="nonzero">
<path style=" stroke:none;fill-rule:nonzero;fill:rgb(0%,0%,0%);fill-opacity:1;" d="M 154.207031 107.632812 L 150.5 107.632812 L 150.5 91.65625 L 154.207031 91.65625 L 154.207031 107.632812 "/>
</g>
<path style=" stroke:none;fill-rule:nonzero;fill:rgb(0%,0%,0%);fill-opacity:1;" d="M 129.65625 116.566406 L 119.386719 104.328125 L 122.226562 101.949219 L 132.496094 114.183594 L 129.65625 116.566406 "/>
<g clip-path="url(#clip6)" clip-rule="nonzero">
<path style=" stroke:none;fill-rule:nonzero;fill:rgb(0%,0%,0%);fill-opacity:1;" d="M 119.433594 136.808594 L 103.699219 134.035156 L 104.34375 130.386719 L 120.074219 133.160156 L 119.433594 136.808594 "/>
</g>
<path style=" stroke:none;fill-rule:nonzero;fill:rgb(0%,0%,0%);fill-opacity:1;" d="M 110.777344 166.875 L 108.925781 163.667969 L 122.761719 155.679688 L 124.613281 158.886719 L 110.777344 166.875 "/>
<g clip-path="url(#clip7)" clip-rule="nonzero">
<path style=" stroke:none;fill-rule:nonzero;fill:rgb(0%,0%,0%);fill-opacity:1;" d="M 137.308594 187.484375 L 133.828125 186.214844 L 139.292969 171.203125 L 142.773438 172.472656 L 137.308594 187.484375 "/>
</g>
<g clip-path="url(#clip8)" clip-rule="nonzero">
<path style=" stroke:none;fill-rule:nonzero;fill:rgb(0%,0%,0%);fill-opacity:1;" d="M 167.398438 187.484375 L 161.933594 172.472656 L 165.414062 171.203125 L 170.878906 186.214844 L 167.398438 187.484375 "/>
</g>
<path style=" stroke:none;fill-rule:nonzero;fill:rgb(0%,0%,0%);fill-opacity:1;" d="M 193.929688 166.875 L 180.09375 158.886719 L 181.945312 155.679688 L 195.78125 163.667969 L 193.929688 166.875 "/>
<g clip-path="url(#clip9)" clip-rule="nonzero">
<path style=" stroke:none;fill-rule:nonzero;fill:rgb(0%,0%,0%);fill-opacity:1;" d="M 185.273438 136.808594 L 184.628906 133.160156 L 200.363281 130.386719 L 201.003906 134.035156 L 185.273438 136.808594 "/>
</g>
<path style=" stroke:none;fill-rule:nonzero;fill:rgb(0%,0%,0%);fill-opacity:1;" d="M 175.050781 116.566406 L 172.210938 114.183594 L 182.480469 101.949219 L 185.316406 104.328125 L 175.050781 116.566406 "/>
</g>
</svg>
