<?xml version="1.0" encoding="utf-8"?>
<!-- Generator: Adobe Illustrator 24.1.3, SVG Export Plug-In . SVG Version: 6.00 Build 0)  -->
<svg version="1.1" id="Layer_1" xmlns="http://www.w3.org/2000/svg" xmlns:xlink="http://www.w3.org/1999/xlink" x="0px" y="0px"
	 viewBox="0 0 96 96" style="enable-background:new 0 0 96 96;" xml:space="preserve">
<style type="text/css">
	.st0{fill:#424242;}
</style>
<path class="st0" d="M96,0H0v71.2h16.7c-2.6,4.7-4.1,10.1-4.3,15.8c-1.8,0.6-3.1,2.3-3.1,4.4c0,2.6,2.1,4.6,4.6,4.6s4.6-2.1,4.6-4.6
	c0-2-1.3-3.7-3-4.3c0.2-5.8,1.9-11.2,4.8-15.8H31c0.3,3.4,1.6,6.6,3.8,9.3h-2.4v3.1h3.1v3.1h-3.1v3.1h3.1V96h24.8v-6.2h3.1v-3.1
	h-3.1v-3.1h3.1v-3.1h-2.4c2.2-2.7,3.5-5.9,3.8-9.3h10.7c2.9,4.6,4.6,10,4.8,15.8c-1.8,0.7-3,2.3-3,4.3c0,2.6,2.1,4.6,4.6,4.6
	c2.6,0,4.6-2.1,4.6-4.6c0-2-1.3-3.7-3.1-4.4c-0.2-5.7-1.7-11-4.3-15.8H96V0z M13.9,92.9c-0.9,0-1.5-0.7-1.5-1.5
	c0-0.9,0.7-1.5,1.5-1.5c0.9,0,1.5,0.7,1.5,1.5C15.5,92.2,14.8,92.9,13.9,92.9z M82.1,89.8c0.9,0,1.5,0.7,1.5,1.5
	c0,0.9-0.7,1.5-1.5,1.5c-0.9,0-1.5-0.7-1.5-1.5C80.5,90.5,81.2,89.8,82.1,89.8z M22.5,68.1c3.4-4.3,7.8-7.7,12.9-9.8
	c-2.4,2.7-4,6.1-4.3,9.8H22.5z M57.3,92.9H38.7v-3.1h18.6V92.9z M57.3,86.7H38.7v-3.1h18.6V86.7z M57.8,79.6l-0.5,0.5v0.4h-7.7v-4.9
	c2.7-0.7,4.6-3.1,4.6-6c0-3.4-2.8-6.2-6.2-6.2s-6.2,2.8-6.2,6.2c0,2.9,2,5.3,4.6,6v4.9h-7.7v-0.4l-0.5-0.5c-2.7-2.6-4.2-6.2-4.2-9.9
	c0-7.7,6.3-13.9,13.9-13.9S61.9,62,61.9,69.7C61.9,73.4,60.5,77,57.8,79.6z M48,72.8c-1.7,0-3.1-1.4-3.1-3.1s1.4-3.1,3.1-3.1
	s3.1,1.4,3.1,3.1S49.7,72.8,48,72.8z M65,68.1c-0.3-3.8-1.9-7.2-4.3-9.8c5.1,2.1,9.5,5.6,12.9,9.8H65z M92.9,68.1H77.4
	c-3.7-5.4-8.8-9.7-14.9-12.4h18.3c0.6,1.8,2.3,3.1,4.4,3.1c2.6,0,4.6-2.1,4.6-4.6c0-2.6-2.1-4.6-4.6-4.6c-2,0-3.7,1.3-4.4,3.1H15.2
	c-0.6-1.8-2.3-3.1-4.4-3.1c-2.6,0-4.6,2.1-4.6,4.6c0,2.6,2.1,4.6,4.6,4.6c2,0,3.7-1.3,4.4-3.1h18.3c-6,2.7-11.2,7-14.9,12.4H3.1
	V15.5h89.8V68.1z M83.6,54.2c0-0.9,0.7-1.5,1.5-1.5s1.5,0.7,1.5,1.5c0,0.9-0.7,1.5-1.5,1.5S83.6,55,83.6,54.2z M12.4,54.2
	c0,0.9-0.7,1.5-1.5,1.5c-0.9,0-1.5-0.7-1.5-1.5c0-0.9,0.7-1.5,1.5-1.5C11.7,52.6,12.4,53.3,12.4,54.2z M92.9,12.4H3.1V3.1h89.8V12.4
	z"/>
<path class="st0" d="M15.5,6.2H6.2v3.1h9.3V6.2z"/>
<path class="st0" d="M21.7,6.2h-3.1v3.1h3.1V6.2z"/>
<path class="st0" d="M31,18.6H6.2v27.9H31V18.6z M27.9,43.4H9.3V21.7h18.6V43.4z"/>
<path class="st0" d="M61.9,18.6H34.1v27.9h27.9V18.6z M58.8,43.4H37.2V21.7h21.7V43.4z"/>
<path class="st0" d="M89.8,18.6H65v27.9h24.8V18.6z M86.7,43.4H68.1V21.7h18.6V43.4z"/>
</svg>
